<mxfile host="app.diagrams.net" modified="2023-02-20T14:18:01.529Z" agent="5.0 (Windows NT 10.0; Win64; x64) AppleWebKit/537.36 (KHTML, like Gecko) Chrome/110.0.0.0 Safari/537.36" etag="M3ko0TKqQ9zMA3Fi7omZ" version="20.8.20" type="github">
  <diagram name="Page-1" id="RvR0zrsKYlOtqzOWGm27">
    <mxGraphModel dx="1247" dy="664" grid="1" gridSize="10" guides="1" tooltips="1" connect="1" arrows="1" fold="1" page="1" pageScale="1" pageWidth="827" pageHeight="1169" math="0" shadow="0">
      <root>
        <mxCell id="0" />
        <mxCell id="1" parent="0" />
        <mxCell id="xHIM9VhbbMbDRT0CSdZD-14" value="UserDict" style="swimlane;fontStyle=1;align=center;verticalAlign=top;childLayout=stackLayout;horizontal=1;startSize=26;horizontalStack=0;resizeParent=1;resizeParentMax=0;resizeLast=0;collapsible=1;marginBottom=0;fillColor=#e1d5e7;strokeColor=#9673a6;rounded=1;" vertex="1" parent="1">
          <mxGeometry x="370" width="160" height="60" as="geometry" />
        </mxCell>
        <mxCell id="xHIM9VhbbMbDRT0CSdZD-15" value="" style="line;strokeWidth=1;fillColor=#A8DADC;align=left;verticalAlign=middle;spacingTop=-1;spacingLeft=3;spacingRight=3;rotatable=0;labelPosition=right;points=[];portConstraint=eastwest;strokeColor=#457B9D;labelBackgroundColor=#F1FAEE;fontColor=#1D3557;rounded=1;" vertex="1" parent="xHIM9VhbbMbDRT0CSdZD-14">
          <mxGeometry y="26" width="160" height="8" as="geometry" />
        </mxCell>
        <mxCell id="xHIM9VhbbMbDRT0CSdZD-16" value="" style="text;strokeColor=#9673a6;fillColor=#e1d5e7;align=left;verticalAlign=top;spacingLeft=4;spacingRight=4;overflow=hidden;rotatable=0;points=[[0,0.5],[1,0.5]];portConstraint=eastwest;rounded=1;" vertex="1" parent="xHIM9VhbbMbDRT0CSdZD-14">
          <mxGeometry y="34" width="160" height="26" as="geometry" />
        </mxCell>
        <mxCell id="xHIM9VhbbMbDRT0CSdZD-17" style="edgeStyle=orthogonalEdgeStyle;rounded=1;orthogonalLoop=1;jettySize=auto;html=1;entryX=0.5;entryY=1;entryDx=0;entryDy=0;strokeColor=#457B9D;endArrow=block;endFill=0;labelBackgroundColor=#F1FAEE;fontColor=#1D3557;curved=1;" edge="1" parent="1" source="xHIM9VhbbMbDRT0CSdZD-18" target="xHIM9VhbbMbDRT0CSdZD-14">
          <mxGeometry relative="1" as="geometry" />
        </mxCell>
        <mxCell id="xHIM9VhbbMbDRT0CSdZD-18" value="Somebook" style="swimlane;fontStyle=1;align=center;verticalAlign=top;childLayout=stackLayout;horizontal=1;startSize=26;horizontalStack=0;resizeParent=1;resizeParentMax=0;resizeLast=0;collapsible=1;marginBottom=0;fillColor=#A8DADC;strokeColor=#457B9D;fontColor=#1D3557;rounded=1;" vertex="1" parent="1">
          <mxGeometry x="370" y="100" width="160" height="190" as="geometry" />
        </mxCell>
        <mxCell id="xHIM9VhbbMbDRT0CSdZD-19" value="" style="line;strokeWidth=1;fillColor=none;align=left;verticalAlign=middle;spacingTop=-1;spacingLeft=3;spacingRight=3;rotatable=0;labelPosition=right;points=[];portConstraint=eastwest;labelBackgroundColor=#F1FAEE;strokeColor=#457B9D;fontColor=#1D3557;rounded=1;" vertex="1" parent="xHIM9VhbbMbDRT0CSdZD-18">
          <mxGeometry y="26" width="160" height="8" as="geometry" />
        </mxCell>
        <mxCell id="xHIM9VhbbMbDRT0CSdZD-20" value="save_data()&#xa;" style="text;strokeColor=none;fillColor=none;align=left;verticalAlign=top;spacingLeft=4;spacingRight=4;overflow=hidden;rotatable=0;points=[[0,0.5],[1,0.5]];portConstraint=eastwest;fontColor=#1D3557;rounded=1;" vertex="1" parent="xHIM9VhbbMbDRT0CSdZD-18">
          <mxGeometry y="34" width="160" height="26" as="geometry" />
        </mxCell>
        <mxCell id="xHIM9VhbbMbDRT0CSdZD-21" value="load_data()&#xa;" style="text;strokeColor=none;fillColor=none;align=left;verticalAlign=top;spacingLeft=4;spacingRight=4;overflow=hidden;rotatable=0;points=[[0,0.5],[1,0.5]];portConstraint=eastwest;fontColor=#1D3557;rounded=1;" vertex="1" parent="xHIM9VhbbMbDRT0CSdZD-18">
          <mxGeometry y="60" width="160" height="26" as="geometry" />
        </mxCell>
        <mxCell id="xHIM9VhbbMbDRT0CSdZD-22" value="add_record()&#xa;" style="text;strokeColor=none;fillColor=none;align=left;verticalAlign=top;spacingLeft=4;spacingRight=4;overflow=hidden;rotatable=0;points=[[0,0.5],[1,0.5]];portConstraint=eastwest;fontColor=#1D3557;rounded=1;" vertex="1" parent="xHIM9VhbbMbDRT0CSdZD-18">
          <mxGeometry y="86" width="160" height="26" as="geometry" />
        </mxCell>
        <mxCell id="xHIM9VhbbMbDRT0CSdZD-23" value="delete_record()" style="text;strokeColor=none;fillColor=none;align=left;verticalAlign=top;spacingLeft=4;spacingRight=4;overflow=hidden;rotatable=0;points=[[0,0.5],[1,0.5]];portConstraint=eastwest;fontColor=#1D3557;rounded=1;" vertex="1" parent="xHIM9VhbbMbDRT0CSdZD-18">
          <mxGeometry y="112" width="160" height="26" as="geometry" />
        </mxCell>
        <mxCell id="xHIM9VhbbMbDRT0CSdZD-24" value="update_record()" style="text;strokeColor=none;fillColor=none;align=left;verticalAlign=top;spacingLeft=4;spacingRight=4;overflow=hidden;rotatable=0;points=[[0,0.5],[1,0.5]];portConstraint=eastwest;fontColor=#1D3557;rounded=1;" vertex="1" parent="xHIM9VhbbMbDRT0CSdZD-18">
          <mxGeometry y="138" width="160" height="26" as="geometry" />
        </mxCell>
        <mxCell id="xHIM9VhbbMbDRT0CSdZD-25" value="find_record()" style="text;strokeColor=none;fillColor=none;align=left;verticalAlign=top;spacingLeft=4;spacingRight=4;overflow=hidden;rotatable=0;points=[[0,0.5],[1,0.5]];portConstraint=eastwest;fontColor=#1D3557;rounded=1;" vertex="1" parent="xHIM9VhbbMbDRT0CSdZD-18">
          <mxGeometry y="164" width="160" height="26" as="geometry" />
        </mxCell>
        <mxCell id="xHIM9VhbbMbDRT0CSdZD-26" style="edgeStyle=orthogonalEdgeStyle;curved=1;orthogonalLoop=1;jettySize=auto;html=1;entryX=-0.012;entryY=0.115;entryDx=0;entryDy=0;fontColor=#1D3557;startArrow=diamond;startFill=1;endArrow=block;endFill=1;strokeColor=#B20000;fillColor=#e51400;entryPerimeter=0;" edge="1" parent="1" source="xHIM9VhbbMbDRT0CSdZD-27" target="xHIM9VhbbMbDRT0CSdZD-25">
          <mxGeometry relative="1" as="geometry" />
        </mxCell>
        <mxCell id="xHIM9VhbbMbDRT0CSdZD-27" value="Record" style="swimlane;fontStyle=1;align=center;verticalAlign=top;childLayout=stackLayout;horizontal=1;startSize=26;horizontalStack=0;resizeParent=1;resizeParentMax=0;resizeLast=0;collapsible=1;marginBottom=0;fillColor=#A8DADC;strokeColor=#457B9D;fontColor=#1D3557;rounded=1;" vertex="1" parent="1">
          <mxGeometry x="60" y="280" width="160" height="86" as="geometry" />
        </mxCell>
        <mxCell id="xHIM9VhbbMbDRT0CSdZD-28" value="add_address()" style="text;strokeColor=none;fillColor=none;align=left;verticalAlign=top;spacingLeft=4;spacingRight=4;overflow=hidden;rotatable=0;points=[[0,0.5],[1,0.5]];portConstraint=eastwest;fontColor=#1D3557;rounded=1;" vertex="1" parent="xHIM9VhbbMbDRT0CSdZD-27">
          <mxGeometry y="26" width="160" height="26" as="geometry" />
        </mxCell>
        <mxCell id="xHIM9VhbbMbDRT0CSdZD-29" value="" style="line;strokeWidth=1;fillColor=none;align=left;verticalAlign=middle;spacingTop=-1;spacingLeft=3;spacingRight=3;rotatable=0;labelPosition=right;points=[];portConstraint=eastwest;labelBackgroundColor=#F1FAEE;strokeColor=#457B9D;fontColor=#1D3557;rounded=1;" vertex="1" parent="xHIM9VhbbMbDRT0CSdZD-27">
          <mxGeometry y="52" width="160" height="8" as="geometry" />
        </mxCell>
        <mxCell id="xHIM9VhbbMbDRT0CSdZD-30" value="add_birthday()" style="text;strokeColor=none;fillColor=none;align=left;verticalAlign=top;spacingLeft=4;spacingRight=4;overflow=hidden;rotatable=0;points=[[0,0.5],[1,0.5]];portConstraint=eastwest;fontColor=#1D3557;rounded=1;" vertex="1" parent="xHIM9VhbbMbDRT0CSdZD-27">
          <mxGeometry y="60" width="160" height="26" as="geometry" />
        </mxCell>
        <mxCell id="xHIM9VhbbMbDRT0CSdZD-31" style="edgeStyle=orthogonalEdgeStyle;curved=1;orthogonalLoop=1;jettySize=auto;html=1;entryX=1.013;entryY=0.154;entryDx=0;entryDy=0;entryPerimeter=0;fontColor=#1D3557;startArrow=diamond;startFill=1;endArrow=block;endFill=1;strokeColor=#B20000;fillColor=#e51400;exitX=0;exitY=0.846;exitDx=0;exitDy=0;exitPerimeter=0;" edge="1" parent="1" source="xHIM9VhbbMbDRT0CSdZD-33" target="xHIM9VhbbMbDRT0CSdZD-25">
          <mxGeometry relative="1" as="geometry" />
        </mxCell>
        <mxCell id="xHIM9VhbbMbDRT0CSdZD-32" value="NoteBookRecord" style="swimlane;fontStyle=1;align=center;verticalAlign=top;childLayout=stackLayout;horizontal=1;startSize=26;horizontalStack=0;resizeParent=1;resizeParentMax=0;resizeLast=0;collapsible=1;marginBottom=0;fillColor=#A8DADC;strokeColor=#457B9D;fontColor=#1D3557;rounded=1;" vertex="1" parent="1">
          <mxGeometry x="650" y="280" width="160" height="86" as="geometry" />
        </mxCell>
        <mxCell id="xHIM9VhbbMbDRT0CSdZD-33" value="add_tag()" style="text;strokeColor=none;fillColor=none;align=left;verticalAlign=top;spacingLeft=4;spacingRight=4;overflow=hidden;rotatable=0;points=[[0,0.5],[1,0.5]];portConstraint=eastwest;fontColor=#1D3557;rounded=1;" vertex="1" parent="xHIM9VhbbMbDRT0CSdZD-32">
          <mxGeometry y="26" width="160" height="26" as="geometry" />
        </mxCell>
        <mxCell id="xHIM9VhbbMbDRT0CSdZD-34" value="" style="line;strokeWidth=1;fillColor=none;align=left;verticalAlign=middle;spacingTop=-1;spacingLeft=3;spacingRight=3;rotatable=0;labelPosition=right;points=[];portConstraint=eastwest;labelBackgroundColor=#F1FAEE;strokeColor=#457B9D;fontColor=#1D3557;rounded=1;" vertex="1" parent="xHIM9VhbbMbDRT0CSdZD-32">
          <mxGeometry y="52" width="160" height="8" as="geometry" />
        </mxCell>
        <mxCell id="xHIM9VhbbMbDRT0CSdZD-35" value="delete_tag()" style="text;strokeColor=none;fillColor=none;align=left;verticalAlign=top;spacingLeft=4;spacingRight=4;overflow=hidden;rotatable=0;points=[[0,0.5],[1,0.5]];portConstraint=eastwest;fontColor=#1D3557;rounded=1;" vertex="1" parent="xHIM9VhbbMbDRT0CSdZD-32">
          <mxGeometry y="60" width="160" height="26" as="geometry" />
        </mxCell>
        <mxCell id="xHIM9VhbbMbDRT0CSdZD-36" style="edgeStyle=orthogonalEdgeStyle;orthogonalLoop=1;jettySize=auto;html=1;entryX=0.581;entryY=1;entryDx=0;entryDy=0;entryPerimeter=0;fontColor=#1D3557;strokeColor=#B20000;fillColor=#e51400;endArrow=block;endFill=1;startArrow=diamond;startFill=1;curved=1;" edge="1" parent="1" source="xHIM9VhbbMbDRT0CSdZD-38" target="xHIM9VhbbMbDRT0CSdZD-30">
          <mxGeometry relative="1" as="geometry" />
        </mxCell>
        <mxCell id="xHIM9VhbbMbDRT0CSdZD-37" style="edgeStyle=orthogonalEdgeStyle;curved=1;orthogonalLoop=1;jettySize=auto;html=1;entryX=0.25;entryY=1;entryDx=0;entryDy=0;entryPerimeter=0;fontColor=#1D3557;startArrow=diamond;startFill=1;endArrow=block;endFill=1;strokeColor=#B20000;fillColor=#e51400;" edge="1" parent="1" source="xHIM9VhbbMbDRT0CSdZD-38" target="xHIM9VhbbMbDRT0CSdZD-35">
          <mxGeometry relative="1" as="geometry" />
        </mxCell>
        <mxCell id="xHIM9VhbbMbDRT0CSdZD-38" value="Class Field" style="swimlane;fontStyle=1;align=center;verticalAlign=top;childLayout=stackLayout;horizontal=1;startSize=26;horizontalStack=0;resizeParent=1;resizeParentMax=0;resizeLast=0;collapsible=1;marginBottom=0;labelBackgroundColor=none;fillColor=#A8DADC;strokeColor=#457B9D;fontColor=#1D3557;rounded=1;labelBorderColor=none;" vertex="1" parent="1">
          <mxGeometry x="360" y="444" width="160" height="60" as="geometry" />
        </mxCell>
        <mxCell id="xHIM9VhbbMbDRT0CSdZD-39" value="" style="line;strokeWidth=1;fillColor=none;align=left;verticalAlign=middle;spacingTop=-1;spacingLeft=3;spacingRight=3;rotatable=0;labelPosition=right;points=[];portConstraint=eastwest;labelBackgroundColor=#F1FAEE;strokeColor=#457B9D;fontColor=#1D3557;rounded=1;" vertex="1" parent="xHIM9VhbbMbDRT0CSdZD-38">
          <mxGeometry y="26" width="160" height="8" as="geometry" />
        </mxCell>
        <mxCell id="xHIM9VhbbMbDRT0CSdZD-40" value="" style="text;strokeColor=#457B9D;fillColor=#A8DADC;align=left;verticalAlign=top;spacingLeft=4;spacingRight=4;overflow=hidden;rotatable=0;points=[[0,0.5],[1,0.5]];portConstraint=eastwest;fontColor=#1D3557;rounded=1;" vertex="1" parent="xHIM9VhbbMbDRT0CSdZD-38">
          <mxGeometry y="34" width="160" height="26" as="geometry" />
        </mxCell>
        <mxCell id="xHIM9VhbbMbDRT0CSdZD-41" style="edgeStyle=orthogonalEdgeStyle;rounded=1;orthogonalLoop=1;jettySize=auto;html=1;endArrow=block;endFill=0;strokeColor=#457B9D;labelBackgroundColor=#F1FAEE;fontColor=#1D3557;curved=1;exitX=0;exitY=0.5;exitDx=0;exitDy=0;" edge="1" parent="1" source="xHIM9VhbbMbDRT0CSdZD-42">
          <mxGeometry relative="1" as="geometry">
            <mxPoint x="520" y="474" as="targetPoint" />
            <Array as="points">
              <mxPoint x="670" y="500" />
              <mxPoint x="590" y="500" />
              <mxPoint x="590" y="480" />
              <mxPoint x="520" y="480" />
            </Array>
            <mxPoint x="570" y="500" as="sourcePoint" />
          </mxGeometry>
        </mxCell>
        <mxCell id="xHIM9VhbbMbDRT0CSdZD-42" value="NoteBookTag" style="swimlane;fontStyle=1;align=center;verticalAlign=top;childLayout=stackLayout;horizontal=1;startSize=26;horizontalStack=0;resizeParent=1;resizeParentMax=0;resizeLast=0;collapsible=1;marginBottom=0;fillColor=#A8DADC;strokeColor=#457B9D;fontColor=#1D3557;rounded=1;" vertex="1" parent="1">
          <mxGeometry x="670" y="470" width="160" height="34" as="geometry" />
        </mxCell>
        <mxCell id="xHIM9VhbbMbDRT0CSdZD-43" value="" style="line;strokeWidth=1;fillColor=none;align=left;verticalAlign=middle;spacingTop=-1;spacingLeft=3;spacingRight=3;rotatable=0;labelPosition=right;points=[];portConstraint=eastwest;labelBackgroundColor=#F1FAEE;strokeColor=#457B9D;fontColor=#1D3557;rounded=1;" vertex="1" parent="xHIM9VhbbMbDRT0CSdZD-42">
          <mxGeometry y="26" width="160" height="8" as="geometry" />
        </mxCell>
        <mxCell id="xHIM9VhbbMbDRT0CSdZD-44" value="Name" style="swimlane;fontStyle=1;align=center;verticalAlign=top;childLayout=stackLayout;horizontal=1;startSize=26;horizontalStack=0;resizeParent=1;resizeParentMax=0;resizeLast=0;collapsible=1;marginBottom=0;fillColor=#A8DADC;strokeColor=#457B9D;fontColor=#1D3557;rounded=1;" vertex="1" parent="1">
          <mxGeometry x="60" y="430" width="160" height="60" as="geometry" />
        </mxCell>
        <mxCell id="xHIM9VhbbMbDRT0CSdZD-45" value="+ field: name" style="text;strokeColor=none;fillColor=none;align=left;verticalAlign=top;spacingLeft=4;spacingRight=4;overflow=hidden;rotatable=0;points=[[0,0.5],[1,0.5]];portConstraint=eastwest;fontColor=#1D3557;rounded=1;" vertex="1" parent="xHIM9VhbbMbDRT0CSdZD-44">
          <mxGeometry y="26" width="160" height="26" as="geometry" />
        </mxCell>
        <mxCell id="xHIM9VhbbMbDRT0CSdZD-46" value="" style="line;strokeWidth=1;fillColor=none;align=left;verticalAlign=middle;spacingTop=-1;spacingLeft=3;spacingRight=3;rotatable=0;labelPosition=right;points=[];portConstraint=eastwest;labelBackgroundColor=#F1FAEE;strokeColor=#457B9D;fontColor=#1D3557;rounded=1;" vertex="1" parent="xHIM9VhbbMbDRT0CSdZD-44">
          <mxGeometry y="52" width="160" height="8" as="geometry" />
        </mxCell>
        <mxCell id="xHIM9VhbbMbDRT0CSdZD-47" style="edgeStyle=orthogonalEdgeStyle;rounded=1;orthogonalLoop=1;jettySize=auto;html=1;endArrow=block;endFill=0;strokeColor=#457B9D;labelBackgroundColor=#F1FAEE;fontColor=#1D3557;curved=1;exitX=0;exitY=0.5;exitDx=0;exitDy=0;" edge="1" parent="1" source="xHIM9VhbbMbDRT0CSdZD-48">
          <mxGeometry relative="1" as="geometry">
            <Array as="points">
              <mxPoint x="640" y="555" />
              <mxPoint x="640" y="560" />
              <mxPoint x="580" y="560" />
              <mxPoint x="580" y="530" />
              <mxPoint x="480" y="530" />
            </Array>
            <mxPoint x="480" y="510" as="targetPoint" />
          </mxGeometry>
        </mxCell>
        <mxCell id="xHIM9VhbbMbDRT0CSdZD-48" value="NoteBookText" style="swimlane;fontStyle=1;align=center;verticalAlign=top;childLayout=stackLayout;horizontal=1;startSize=26;horizontalStack=0;resizeParent=1;resizeParentMax=0;resizeLast=0;collapsible=1;marginBottom=0;fillColor=#A8DADC;strokeColor=#457B9D;fontColor=#1D3557;rounded=1;" vertex="1" parent="1">
          <mxGeometry x="667" y="538" width="160" height="34" as="geometry" />
        </mxCell>
        <mxCell id="xHIM9VhbbMbDRT0CSdZD-49" value="" style="line;strokeWidth=1;fillColor=none;align=left;verticalAlign=middle;spacingTop=-1;spacingLeft=3;spacingRight=3;rotatable=0;labelPosition=right;points=[];portConstraint=eastwest;labelBackgroundColor=#F1FAEE;strokeColor=#457B9D;fontColor=#1D3557;rounded=1;" vertex="1" parent="xHIM9VhbbMbDRT0CSdZD-48">
          <mxGeometry y="26" width="160" height="8" as="geometry" />
        </mxCell>
        <mxCell id="xHIM9VhbbMbDRT0CSdZD-50" value="Class Phone" style="swimlane;fontStyle=1;align=center;verticalAlign=top;childLayout=stackLayout;horizontal=1;startSize=26;horizontalStack=0;resizeParent=1;resizeParentMax=0;resizeLast=0;collapsible=1;marginBottom=0;fillColor=#A8DADC;strokeColor=#457B9D;fontColor=#1D3557;rounded=1;" vertex="1" parent="1">
          <mxGeometry x="60" y="525" width="160" height="60" as="geometry" />
        </mxCell>
        <mxCell id="xHIM9VhbbMbDRT0CSdZD-51" value="+ field: phone" style="text;strokeColor=none;fillColor=none;align=left;verticalAlign=top;spacingLeft=4;spacingRight=4;overflow=hidden;rotatable=0;points=[[0,0.5],[1,0.5]];portConstraint=eastwest;fontColor=#1D3557;rounded=1;" vertex="1" parent="xHIM9VhbbMbDRT0CSdZD-50">
          <mxGeometry y="26" width="160" height="26" as="geometry" />
        </mxCell>
        <mxCell id="xHIM9VhbbMbDRT0CSdZD-52" value="" style="line;strokeWidth=1;fillColor=none;align=left;verticalAlign=middle;spacingTop=-1;spacingLeft=3;spacingRight=3;rotatable=0;labelPosition=right;points=[];portConstraint=eastwest;labelBackgroundColor=#F1FAEE;strokeColor=#457B9D;fontColor=#1D3557;rounded=1;" vertex="1" parent="xHIM9VhbbMbDRT0CSdZD-50">
          <mxGeometry y="52" width="160" height="8" as="geometry" />
        </mxCell>
        <mxCell id="xHIM9VhbbMbDRT0CSdZD-53" style="edgeStyle=orthogonalEdgeStyle;curved=1;orthogonalLoop=1;jettySize=auto;html=1;entryX=0.25;entryY=1;entryDx=0;entryDy=0;fontColor=#1D3557;startArrow=none;startFill=0;endArrow=block;endFill=0;strokeColor=#457B9D;fillColor=#A8DADC;" edge="1" parent="1" source="xHIM9VhbbMbDRT0CSdZD-54" target="xHIM9VhbbMbDRT0CSdZD-38">
          <mxGeometry relative="1" as="geometry" />
        </mxCell>
        <mxCell id="xHIM9VhbbMbDRT0CSdZD-54" value="Class  Address" style="swimlane;fontStyle=1;align=center;verticalAlign=top;childLayout=stackLayout;horizontal=1;startSize=26;horizontalStack=0;resizeParent=1;resizeParentMax=0;resizeLast=0;collapsible=1;marginBottom=0;fillColor=#A8DADC;strokeColor=#457B9D;fontColor=#1D3557;rounded=1;" vertex="1" parent="1">
          <mxGeometry x="334" y="670" width="160" height="60" as="geometry" />
        </mxCell>
        <mxCell id="xHIM9VhbbMbDRT0CSdZD-55" value="+ field: address" style="text;strokeColor=none;fillColor=none;align=left;verticalAlign=top;spacingLeft=4;spacingRight=4;overflow=hidden;rotatable=0;points=[[0,0.5],[1,0.5]];portConstraint=eastwest;fontColor=#1D3557;rounded=1;" vertex="1" parent="xHIM9VhbbMbDRT0CSdZD-54">
          <mxGeometry y="26" width="160" height="26" as="geometry" />
        </mxCell>
        <mxCell id="xHIM9VhbbMbDRT0CSdZD-56" value="" style="line;strokeWidth=1;fillColor=none;align=left;verticalAlign=middle;spacingTop=-1;spacingLeft=3;spacingRight=3;rotatable=0;labelPosition=right;points=[];portConstraint=eastwest;labelBackgroundColor=#F1FAEE;strokeColor=#457B9D;fontColor=#1D3557;rounded=1;" vertex="1" parent="xHIM9VhbbMbDRT0CSdZD-54">
          <mxGeometry y="52" width="160" height="8" as="geometry" />
        </mxCell>
        <mxCell id="xHIM9VhbbMbDRT0CSdZD-57" style="edgeStyle=orthogonalEdgeStyle;curved=1;orthogonalLoop=1;jettySize=auto;html=1;entryX=0.581;entryY=0.962;entryDx=0;entryDy=0;entryPerimeter=0;fontColor=#1D3557;startArrow=none;startFill=0;endArrow=block;endFill=0;strokeColor=#457B9D;fillColor=#A8DADC;" edge="1" parent="1" source="xHIM9VhbbMbDRT0CSdZD-58" target="xHIM9VhbbMbDRT0CSdZD-40">
          <mxGeometry relative="1" as="geometry">
            <Array as="points">
              <mxPoint x="560" y="582" />
              <mxPoint x="453" y="582" />
            </Array>
          </mxGeometry>
        </mxCell>
        <mxCell id="xHIM9VhbbMbDRT0CSdZD-58" value="Class Email" style="swimlane;fontStyle=1;align=center;verticalAlign=top;childLayout=stackLayout;horizontal=1;startSize=26;horizontalStack=0;resizeParent=1;resizeParentMax=0;resizeLast=0;collapsible=1;marginBottom=0;fillColor=#A8DADC;strokeColor=#457B9D;fontColor=#1D3557;rounded=1;" vertex="1" parent="1">
          <mxGeometry x="530" y="660" width="160" height="60" as="geometry" />
        </mxCell>
        <mxCell id="xHIM9VhbbMbDRT0CSdZD-59" value="+ field: email" style="text;strokeColor=none;fillColor=none;align=left;verticalAlign=top;spacingLeft=4;spacingRight=4;overflow=hidden;rotatable=0;points=[[0,0.5],[1,0.5]];portConstraint=eastwest;fontColor=#1D3557;rounded=1;" vertex="1" parent="xHIM9VhbbMbDRT0CSdZD-58">
          <mxGeometry y="26" width="160" height="26" as="geometry" />
        </mxCell>
        <mxCell id="xHIM9VhbbMbDRT0CSdZD-60" value="" style="line;strokeWidth=1;fillColor=none;align=left;verticalAlign=middle;spacingTop=-1;spacingLeft=3;spacingRight=3;rotatable=0;labelPosition=right;points=[];portConstraint=eastwest;labelBackgroundColor=#F1FAEE;strokeColor=#457B9D;fontColor=#1D3557;rounded=1;" vertex="1" parent="xHIM9VhbbMbDRT0CSdZD-58">
          <mxGeometry y="52" width="160" height="8" as="geometry" />
        </mxCell>
        <mxCell id="xHIM9VhbbMbDRT0CSdZD-61" value="Class Birthday" style="swimlane;fontStyle=1;align=center;verticalAlign=top;childLayout=stackLayout;horizontal=1;startSize=26;horizontalStack=0;resizeParent=1;resizeParentMax=0;resizeLast=0;collapsible=1;marginBottom=0;fillColor=#A8DADC;strokeColor=#457B9D;fontColor=#1D3557;rounded=1;" vertex="1" parent="1">
          <mxGeometry x="130" y="620" width="160" height="60" as="geometry" />
        </mxCell>
        <mxCell id="xHIM9VhbbMbDRT0CSdZD-62" value="+ field: birthday" style="text;strokeColor=none;fillColor=none;align=left;verticalAlign=top;spacingLeft=4;spacingRight=4;overflow=hidden;rotatable=0;points=[[0,0.5],[1,0.5]];portConstraint=eastwest;fontColor=#1D3557;rounded=1;" vertex="1" parent="xHIM9VhbbMbDRT0CSdZD-61">
          <mxGeometry y="26" width="160" height="26" as="geometry" />
        </mxCell>
        <mxCell id="xHIM9VhbbMbDRT0CSdZD-63" value="" style="line;strokeWidth=1;fillColor=none;align=left;verticalAlign=middle;spacingTop=-1;spacingLeft=3;spacingRight=3;rotatable=0;labelPosition=right;points=[];portConstraint=eastwest;labelBackgroundColor=#F1FAEE;strokeColor=#457B9D;fontColor=#1D3557;rounded=1;" vertex="1" parent="xHIM9VhbbMbDRT0CSdZD-61">
          <mxGeometry y="52" width="160" height="8" as="geometry" />
        </mxCell>
        <mxCell id="xHIM9VhbbMbDRT0CSdZD-64" style="edgeStyle=orthogonalEdgeStyle;curved=1;orthogonalLoop=1;jettySize=auto;html=1;entryX=0;entryY=0.25;entryDx=0;entryDy=0;fontColor=#1D3557;startArrow=none;startFill=0;endArrow=block;endFill=0;strokeColor=#457B9D;fillColor=#A8DADC;" edge="1" parent="1" source="xHIM9VhbbMbDRT0CSdZD-45" target="xHIM9VhbbMbDRT0CSdZD-38">
          <mxGeometry relative="1" as="geometry" />
        </mxCell>
        <mxCell id="xHIM9VhbbMbDRT0CSdZD-65" style="edgeStyle=orthogonalEdgeStyle;curved=1;orthogonalLoop=1;jettySize=auto;html=1;entryX=-0.012;entryY=0.115;entryDx=0;entryDy=0;entryPerimeter=0;fontColor=#1D3557;startArrow=none;startFill=0;endArrow=block;endFill=0;strokeColor=#457B9D;fillColor=#A8DADC;" edge="1" parent="1" source="xHIM9VhbbMbDRT0CSdZD-51" target="xHIM9VhbbMbDRT0CSdZD-40">
          <mxGeometry relative="1" as="geometry" />
        </mxCell>
        <mxCell id="xHIM9VhbbMbDRT0CSdZD-66" style="edgeStyle=orthogonalEdgeStyle;curved=1;orthogonalLoop=1;jettySize=auto;html=1;entryX=0;entryY=0.75;entryDx=0;entryDy=0;fontColor=#1D3557;startArrow=none;startFill=0;endArrow=block;endFill=0;strokeColor=#457B9D;fillColor=#A8DADC;" edge="1" parent="1" source="xHIM9VhbbMbDRT0CSdZD-62" target="xHIM9VhbbMbDRT0CSdZD-38">
          <mxGeometry relative="1" as="geometry" />
        </mxCell>
      </root>
    </mxGraphModel>
  </diagram>
</mxfile>
